<?xml version="1.0" standalone="no"?>
<!DOCTYPE svg PUBLIC "-//W3C//DTD SVG 20010904//EN"
 "http://www.w3.org/TR/2001/REC-SVG-20010904/DTD/svg10.dtd">
<svg version="1.0" xmlns="http://www.w3.org/2000/svg"
 width="1024.000000pt" height="1024.000000pt" viewBox="0 0 1024.000000 1024.000000"
 preserveAspectRatio="xMidYMid meet">

<g transform="translate(0.000000,1024.000000) scale(0.100000,-0.100000)"
fill="#000000" stroke="none">
<path d="M0 5120 l0 -5120 5120 0 5120 0 0 5120 0 5120 -5120 0 -5120 0 0
-5120z m8605 3860 c3 -5 1 -10 -4 -10 -6 0 -11 5 -11 10 0 6 2 10 4 10 3 0 8
-4 11 -10z m-2595 -614 c44 -26 112 -58 152 -72 40 -15 102 -41 138 -59 36
-18 97 -44 137 -58 112 -41 426 -168 449 -182 40 -26 69 -22 110 15 39 35 173
90 376 155 l87 28 30 -24 c16 -13 55 -40 86 -59 67 -41 78 -61 105 -175 24
-101 25 -151 6 -223 -27 -102 -54 -133 -156 -181 -108 -52 -140 -54 -285 -15
-55 14 -121 31 -147 36 -50 11 -86 40 -132 107 -25 36 -28 51 -31 132 -3 87
-4 92 -30 105 -15 8 -34 14 -41 14 -8 0 -45 16 -82 35 -37 19 -94 46 -127 59
-33 13 -139 61 -235 106 -96 45 -218 101 -270 124 -52 24 -132 63 -176 89 -45
25 -93 49 -108 53 -29 7 -28 6 -20 29 11 28 74 13 164 -39z m-3102 -613 c13
-8 32 -34 43 -57 22 -50 13 -99 -24 -134 -29 -27 -102 -59 -152 -67 -35 -5
-46 -2 -90 32 -43 34 -50 44 -53 78 -1 24 5 55 15 75 16 30 30 39 103 67 88
34 115 35 158 6z m1042 -423 c350 -41 499 -60 514 -66 12 -5 16 0 16 20 0 20
5 26 22 26 24 0 199 -40 418 -95 74 -19 173 -39 220 -45 47 -6 132 -21 190
-32 58 -12 123 -22 145 -23 22 -1 28 0 13 2 -31 5 -38 23 -10 23 10 0 104 15
208 34 l189 34 50 -46 c54 -51 75 -69 210 -189 50 -44 96 -87 104 -96 7 -10
18 -17 24 -17 5 0 42 -30 81 -68 39 -37 109 -99 156 -138 47 -40 98 -86 114
-103 l30 -31 -35 0 c-79 0 -1855 384 -1903 411 -16 9 -18 8 -12 -6 5 -15 1
-17 -31 -13 -37 4 -189 33 -341 65 -40 9 -75 13 -79 10 -3 -3 8 -9 23 -13 16
-4 34 -11 40 -16 12 -9 17 -10 124 -28 36 -7 99 -20 140 -30 60 -15 401 -88
545 -117 458 -90 1041 -210 1213 -249 91 -21 112 -29 112 -44 0 -28 22 -39 96
-46 53 -5 78 -3 109 10 33 14 41 15 50 3 11 -15 45 -39 198 -137 55 -36 102
-72 104 -80 4 -13 3 -13 -6 0 -9 12 -11 12 -11 1 0 -12 -51 -13 -342 -8 -464
9 -1143 -8 -1470 -38 -35 -3 -45 4 -145 94 -59 54 -197 189 -305 300 -109 111
-219 219 -245 238 -26 20 -67 54 -89 75 -28 27 -44 36 -49 28 -4 -6 -2 -17 4
-23 6 -6 11 -8 11 -3 0 4 12 -7 27 -24 14 -17 56 -56 92 -85 72 -58 210 -190
226 -216 18 -30 95 -121 95 -113 0 4 6 -1 14 -11 8 -11 12 -23 9 -28 -2 -4 1
-6 9 -5 7 2 12 -4 10 -12 -2 -8 -1 -12 3 -8 8 8 61 -42 58 -54 -2 -4 4 -5 12
-2 8 4 15 1 15 -5 0 -6 11 -17 25 -23 14 -6 24 -17 21 -24 -3 -8 0 -16 6 -20
7 -4 8 -3 4 4 -4 7 -3 12 2 12 5 0 15 -11 22 -25 7 -13 17 -22 21 -19 4 2 11
-2 16 -9 4 -8 25 -22 45 -32 32 -14 36 -20 28 -35 -6 -10 -8 -48 -7 -84 2 -37
-2 -108 -9 -159 -7 -50 -24 -193 -39 -317 -14 -124 -32 -277 -40 -340 -7 -63
-14 -134 -14 -157 -1 -24 -5 -62 -10 -85 -9 -39 -8 -58 4 -47 7 8 43 246 50
334 9 121 13 154 24 225 6 36 15 124 20 195 5 72 15 162 21 200 5 39 11 102
13 142 1 39 6 75 10 79 4 4 7 -2 7 -14 0 -28 18 -38 22 -11 4 25 -32 22 508
49 731 37 1192 50 1288 34 l39 -6 -29 -122 c-16 -66 -49 -215 -73 -331 -25
-115 -49 -225 -55 -244 -5 -19 -8 -36 -6 -38 6 -6 388 94 494 129 51 16 92 34
90 38 -3 9 -177 167 -322 294 -50 43 -93 83 -95 89 -5 13 20 117 30 122 4 3 5
-4 2 -16 -7 -24 32 -67 157 -172 47 -40 146 -126 220 -192 74 -67 164 -145
200 -174 36 -30 66 -57 68 -62 2 -4 -27 -17 -65 -28 -478 -140 -969 -281
-1138 -326 -255 -68 -493 -133 -680 -185 -77 -21 -225 -62 -330 -90 -217 -58
-610 -169 -734 -206 l-84 -26 48 -44 48 -43 -7 -103 c-3 -57 -9 -129 -12 -160
-6 -56 -7 -57 -53 -76 -129 -54 -216 -76 -303 -77 -77 0 -89 2 -108 23 -11 12
-27 22 -35 22 -8 0 -30 14 -49 30 -35 31 -39 43 -60 201 -6 48 11 183 24 187
6 2 33 19 60 38 27 19 55 34 61 34 7 0 8 7 4 18 -4 9 -10 28 -13 42 -4 20 -2
23 9 13 19 -18 34 -16 19 2 -7 9 -20 13 -28 10 -13 -5 -13 -3 -1 12 8 9 9 14
3 10 -6 -3 -22 5 -35 19 -19 21 -21 27 -9 34 19 12 30 3 24 -18 -5 -14 -3 -14
10 2 23 29 21 31 -28 33 -33 0 -43 -3 -40 -12 3 -7 0 -16 -5 -20 -6 -3 -8 -11
-4 -18 4 -7 9 -4 13 7 5 15 10 11 33 -21 15 -22 27 -49 27 -62 0 -17 -43 21
-195 171 -108 106 -242 237 -298 292 -56 54 -238 234 -404 399 l-302 300 6 66
c4 63 2 71 -40 156 -47 96 -64 164 -47 195 11 21 75 44 197 70 49 10 144 33
213 49 69 17 141 33 161 36 33 5 36 9 47 53 7 26 24 126 37 222 14 96 30 190
36 208 l11 32 31 -22 c18 -13 67 -51 110 -85 42 -34 77 -60 77 -58 0 6 -37 59
-129 185 -115 157 -124 173 -128 209 -2 26 -1 32 7 21 6 -10 8 -3 3 24 -5 32
-4 38 8 31 11 -6 12 -5 2 6 -7 7 -13 21 -13 32 0 17 6 18 78 12 42 -3 151 -15
242 -25z m1680 -44 c0 -9 -40 -13 -46 -5 -3 5 6 9 20 9 14 0 26 -2 26 -4z
m-630 -51 c80 -14 149 -31 155 -37 7 -7 -4 -9 -40 -4 -54 7 -287 63 -270 65 6
1 76 -10 155 -24z m353 -72 c83 -19 108 -36 30 -21 -157 30 -178 36 -143 37
19 0 70 -7 113 -16z m-632 -600 c13 -16 12 -17 -3 -4 -10 7 -18 15 -18 17 0 8
8 3 21 -13z m-1788 -271 c-5 -44 -1 -58 43 -143 37 -71 49 -107 52 -151 3 -36
0 -58 -6 -58 -11 0 -116 94 -256 231 l-90 87 45 12 c32 9 197 61 216 69 1 1
-1 -21 -4 -47z m-332 -1348 c26 -31 20 -44 -21 -44 -29 0 -43 6 -54 22 -9 12
-16 26 -16 30 0 15 77 8 91 -8z m-159 -29 l18 -35 -50 0 c-42 0 -51 4 -69 29
-20 27 -20 30 -4 34 10 3 34 5 53 6 30 0 37 -4 52 -34z m-197 -12 c27 -32 19
-43 -36 -43 -25 0 -42 7 -59 25 -25 26 -22 30 30 38 14 2 29 5 33 6 4 0 19
-11 32 -26z m-177 -33 c33 -32 32 -32 -39 -44 -28 -5 -40 -2 -54 14 -10 11
-25 20 -33 20 -26 0 -6 11 45 25 26 7 49 14 50 14 1 1 15 -12 31 -29z m-201
-88 c-50 -12 -57 -12 -88 7 -36 22 -36 22 43 45 39 12 43 11 71 -13 l29 -26
-55 -13z m-149 -25 l30 -12 -37 -32 c-27 -23 -44 -30 -63 -26 -39 7 -41 29 -7
58 35 29 37 29 77 12z m145 -41 c25 -19 22 -22 -27 -35 -61 -15 -76 -14 -76 5
0 22 29 43 60 43 14 0 33 -6 43 -13z m74 -58 c14 -13 23 -33 23 -50 0 -25 -2
-27 -19 -18 -11 5 -32 10 -48 10 -20 0 -31 7 -39 25 -10 21 -9 26 10 39 29 21
46 19 73 -6z m-1 -128 c24 0 15 -24 -20 -52 l-35 -28 -36 21 c-20 12 -35 23
-33 24 17 15 86 44 96 40 8 -3 20 -5 28 -5z m-145 -106 c17 -8 29 -17 27 -19
-1 -2 -23 -15 -47 -28 -42 -24 -46 -25 -74 -10 -25 12 -27 17 -16 28 12 12 68
45 77 45 2 0 17 -7 33 -16z m-139 -102 c5 -5 -13 -22 -38 -39 -41 -26 -51 -29
-75 -19 -16 6 -29 13 -29 17 0 3 17 18 38 32 36 26 83 30 104 9z m4663 -13
c53 -27 81 -66 70 -98 -9 -29 -29 -32 -96 -15 -69 18 -123 14 -239 -18 -219
-59 -371 -173 -456 -341 -36 -70 -42 -117 -59 -482 -27 -549 -32 -583 -92
-622 -30 -20 -88 -5 -123 32 -23 24 -23 26 -16 182 4 87 9 239 12 338 7 242
28 438 54 506 85 215 203 340 415 439 232 107 419 135 530 79z m-4811 -137
c-16 -39 -16 -39 -92 -33 -17 1 -6 41 16 59 9 6 33 12 53 12 l37 0 -14 -38z
m6151 -976 c66 -26 134 -52 150 -58 17 -6 33 -14 38 -17 11 -10 -28 -186 -41
-184 -6 2 -28 5 -50 9 l-39 6 -7 -46 c-3 -25 -9 -66 -12 -89 -3 -24 -9 -49
-13 -56 -5 -7 -52 -21 -105 -31 -53 -11 -102 -22 -109 -27 -6 -4 -30 -8 -52
-10 -22 -1 -60 -5 -85 -8 -40 -6 -57 -1 -158 46 -128 59 -122 48 -94 183 l17
80 50 20 c28 11 69 32 93 46 l43 27 -42 12 -41 12 7 56 c11 92 -2 86 174 80
l156 -4 120 -47z m-4845 -517 c52 -11 96 -21 97 -23 2 -2 10 -38 18 -81 l15
-78 -42 -46 c-160 -176 -188 -201 -188 -167 0 8 -7 17 -16 20 -28 11 -54 6
-54 -9 0 -8 -4 -15 -10 -15 -5 0 -10 9 -10 19 0 15 -11 22 -47 30 -27 5 -49 6
-51 2 -2 -5 -19 0 -40 10 -20 11 -42 19 -49 19 -9 0 -13 15 -13 43 0 36 8 53
49 107 81 108 224 226 242 199 3 -5 48 -18 99 -30z m97 35 c-3 -3 -12 -4 -19
-1 -8 3 -5 6 6 6 11 1 17 -2 13 -5z m718 -310 c173 -24 409 -65 417 -73 4 -3
21 -65 37 -136 16 -72 35 -153 42 -181 6 -29 9 -59 6 -68 -10 -27 -447 -345
-482 -352 -21 -4 -82 7 -176 31 -79 20 -189 45 -244 56 -55 11 -104 24 -108
28 -5 5 -28 64 -52 132 -24 68 -51 145 -61 171 l-18 47 24 27 c29 31 106 93
296 239 126 98 138 105 172 100 20 -3 87 -12 147 -21z"/>
<path d="M4178 7223 c7 -3 16 -2 19 1 4 3 -2 6 -13 5 -11 0 -14 -3 -6 -6z"/>
<path d="M4040 7214 c1 -12 39 -61 40 -51 0 5 -9 20 -20 34 -11 14 -20 22 -20
17z"/>
<path d="M4233 7213 c9 -2 25 -2 35 0 9 3 1 5 -18 5 -19 0 -27 -2 -17 -5z"/>
<path d="M4308 7203 c12 -2 30 -2 40 0 9 3 -1 5 -23 4 -22 0 -30 -2 -17 -4z"/>
<path d="M4388 7193 c7 -3 16 -2 19 1 4 3 -2 6 -13 5 -11 0 -14 -3 -6 -6z"/>
<path d="M5755 7114 c-33 -7 -76 -13 -94 -14 -59 0 -22 -17 89 -39 99 -20 107
-24 151 -67 34 -33 62 -50 108 -65 77 -23 87 -24 70 -2 -28 33 -239 203 -251
202 -7 -1 -40 -7 -73 -15z"/>
<path d="M5538 7103 c7 -3 16 -2 19 1 4 3 -2 6 -13 5 -11 0 -14 -3 -6 -6z"/>
<path d="M4197 7023 c-4 -3 -7 -13 -7 -22 1 -13 3 -13 11 2 11 19 8 33 -4 20z"/>
<path d="M3730 6815 c0 -2 10 -10 23 -16 20 -11 21 -11 8 4 -13 16 -31 23 -31
12z"/>
<path d="M3830 6725 c30 -30 57 -55 59 -55 3 0 -19 25 -49 55 -30 30 -57 55
-59 55 -3 0 19 -25 49 -55z"/>
<path d="M3902 6613 c-6 -32 -12 -62 -14 -68 -1 -5 18 -29 43 -53 l46 -42 13
77 12 77 -38 33 c-22 18 -42 33 -45 33 -4 0 -11 -26 -17 -57z"/>
<path d="M3850 6636 c0 -2 8 -10 18 -17 15 -13 16 -12 3 4 -13 16 -21 21 -21
13z"/>
<path d="M3796 6616 c3 -8 13 -17 22 -21 13 -5 13 -2 -3 15 -21 24 -26 25 -19
6z"/>
<path d="M3760 6575 c19 -19 36 -35 39 -35 3 0 -10 16 -29 35 -19 19 -36 35
-39 35 -3 0 10 -16 29 -35z"/>
<path d="M3830 6440 c0 -5 5 -10 11 -10 5 0 7 5 4 10 -3 6 -8 10 -11 10 -2 0
-4 -4 -4 -10z"/>
<path d="M3500 6423 c-59 -10 -500 -130 -508 -138 -4 -4 92 -94 142 -134 34
-27 215 -193 298 -273 15 -15 30 -23 32 -19 6 8 96 534 96 556 0 15 -12 16
-60 8z"/>
<path d="M3670 6417 c0 -2 19 -17 43 -32 23 -16 37 -22 30 -14 -12 15 -73 53
-73 46z"/>
<path d="M3880 6395 c13 -14 26 -25 28 -25 3 0 -5 11 -18 25 -13 14 -26 25
-28 25 -3 0 5 -11 18 -25z"/>
<path d="M3830 6366 c0 -2 8 -10 18 -17 15 -13 16 -12 3 4 -13 16 -21 21 -21
13z"/>
<path d="M3850 6276 c0 -2 8 -10 18 -17 15 -13 16 -12 3 4 -13 16 -21 21 -21
13z"/>
<path d="M3691 6257 c2 -1 13 -9 24 -17 19 -14 19 -14 6 3 -7 9 -18 17 -24 17
-6 0 -8 -1 -6 -3z"/>
<path d="M3765 6200 c10 -11 20 -20 23 -20 3 0 -3 9 -13 20 -10 11 -20 20 -23
20 -3 0 3 -9 13 -20z"/>
<path d="M3780 6116 c0 -2 8 -10 18 -17 15 -13 16 -12 3 4 -13 16 -21 21 -21
13z"/>
<path d="M3657 6060 c18 -19 34 -32 36 -29 2 2 -12 17 -32 33 l-36 30 32 -34z"/>
<path d="M3730 6076 c0 -2 8 -10 18 -17 15 -13 16 -12 3 4 -13 16 -21 21 -21
13z"/>
<path d="M3177 5995 c-15 -19 -24 -35 -19 -35 14 0 54 48 51 59 -2 6 -17 -5
-32 -24z"/>
<path d="M3800 6017 c0 -2 15 -16 33 -33 l32 -29 -29 33 c-28 30 -36 37 -36
29z"/>
<path d="M3630 6006 c0 -2 8 -10 18 -17 15 -13 16 -12 3 4 -13 16 -21 21 -21
13z"/>
<path d="M3735 5990 c10 -11 20 -20 23 -20 3 0 -3 9 -13 20 -10 11 -20 20 -23
20 -3 0 3 -9 13 -20z"/>
<path d="M5902 5978 l-33 -33 -20 25 c-17 21 -19 22 -10 3 14 -28 14 -36 -1
-27 -7 4 -8 3 -4 -5 4 -6 13 -8 19 -5 9 5 9 3 0 -6 -10 -11 -7 -16 14 -27 29
-15 46 -17 21 -2 -10 5 -18 16 -18 23 0 18 35 48 45 39 4 -5 5 -2 1 5 -4 6 -3
12 2 12 6 0 12 7 16 15 8 21 5 19 -32 -17z"/>
<path d="M3675 5963 c6 -6 33 -30 60 -54 l50 -43 -40 43 c-22 23 -49 47 -60
53 -11 6 -15 6 -10 1z"/>
<path d="M3610 5945 c0 -3 15 -18 33 -33 17 -15 57 -49 87 -77 52 -47 53 -47
15 -6 -46 49 -135 126 -135 116z"/>
<path d="M5940 5900 c-9 -6 -10 -10 -3 -10 6 0 15 5 18 10 8 12 4 12 -15 0z"/>
<path d="M5830 5885 c-7 -9 -11 -17 -9 -20 3 -2 10 5 17 15 14 24 10 26 -8 5z"/>
<path d="M3607 5869 c7 -7 15 -10 18 -7 3 3 -2 9 -12 12 -14 6 -15 5 -6 -5z"/>
<path d="M3721 5764 c46 -49 86 -89 89 -87 2 2 -36 43 -85 91 l-89 87 85 -91z"/>
<path d="M3820 5822 c6 -13 14 -21 18 -18 3 4 -2 14 -12 24 -18 16 -18 16 -6
-6z"/>
<path d="M3657 5754 c122 -117 141 -132 63 -51 -41 43 -88 88 -105 99 -16 11
2 -10 42 -48z"/>
<path d="M3800 5762 c6 -13 14 -21 18 -18 3 4 -2 14 -12 24 -18 16 -18 16 -6
-6z"/>
<path d="M4626 5763 c-2 -10 -7 -53 -11 -95 -6 -65 -3 -89 15 -142 12 -36 31
-77 42 -92 21 -25 22 -26 29 -7 4 11 13 82 19 157 13 149 12 154 -41 182 -36
18 -47 18 -53 -3z"/>
<path d="M3266 5758 c3 -5 10 -6 15 -3 13 9 11 12 -6 12 -8 0 -12 -4 -9 -9z"/>
<path d="M3316 5761 c-7 -10 22 -37 30 -28 4 3 -1 13 -9 22 -9 8 -18 11 -21 6z"/>
<path d="M3605 5734 c58 -58 155 -143 120 -105 -22 23 -62 61 -90 84 -27 22
-41 32 -30 21z"/>
<path d="M3300 5730 c0 -5 5 -10 11 -10 5 0 7 5 4 10 -3 6 -8 10 -11 10 -2 0
-4 -4 -4 -10z"/>
<path d="M3408 5713 c6 -2 18 -2 25 0 6 3 1 5 -13 5 -14 0 -19 -2 -12 -5z"/>
<path d="M3331 5698 c8 -7 19 -19 24 -25 8 -10 11 -8 11 6 0 11 -4 18 -7 15
-4 -2 -10 0 -14 6 -3 5 -11 10 -18 10 -6 0 -5 -5 4 -12z"/>
<path d="M3661 5617 c2 -1 13 -9 24 -17 19 -14 19 -14 6 3 -7 9 -18 17 -24 17
-6 0 -8 -1 -6 -3z"/>
<path d="M3770 5581 c0 -6 4 -13 10 -16 6 -3 7 1 4 9 -7 18 -14 21 -14 7z"/>
<path d="M3705 5570 c-4 -6 -10 -8 -14 -6 -4 3 -8 -1 -8 -8 0 -9 8 -13 22 -10
21 4 65 -27 65 -45 0 -5 9 -11 20 -14 20 -5 20 -5 0 24 -26 36 -38 44 -71 48
-5 0 -7 6 -4 11 3 6 4 10 1 10 -3 0 -8 -5 -11 -10z"/>
<path d="M3827 5573 c-4 -3 -7 -19 -7 -35 0 -40 24 -31 28 10 3 30 -6 41 -21
25z"/>
<path d="M3646 5557 c3 -10 9 -15 12 -12 3 3 0 11 -7 18 -10 9 -11 8 -5 -6z"/>
<path d="M4436 5534 c-5 -14 -4 -15 9 -4 17 14 19 20 6 20 -5 0 -12 -7 -15
-16z"/>
<path d="M4550 5522 c0 -5 6 -22 14 -37 16 -30 28 -21 16 11 -9 24 -30 41 -30
26z"/>
<path d="M3736 5504 c-4 -9 -4 -19 -1 -22 3 -3 11 0 17 6 9 9 9 15 1 23 -7 7
-12 5 -17 -7z"/>
<path d="M3615 5470 c3 -5 10 -10 16 -10 5 0 9 5 9 10 0 6 -7 10 -16 10 -8 0
-12 -4 -9 -10z"/>
<path d="M3776 5463 c-6 -14 -5 -15 5 -6 7 7 10 15 7 18 -3 3 -9 -2 -12 -12z"/>
<path d="M3805 5458 l-20 -21 21 11 c12 6 24 8 28 4 4 -3 4 1 0 11 -3 9 -7 17
-8 16 0 0 -10 -10 -21 -21z"/>
<path d="M3641 5431 c-10 -7 -7 -9 12 -8 14 1 23 5 20 10 -6 9 -15 9 -32 -2z"/>
<path d="M4571 5424 c0 -11 3 -14 6 -6 3 7 2 16 -1 19 -3 4 -6 -2 -5 -13z"/>
<path d="M4055 5070 c3 -5 8 -10 11 -10 2 0 4 5 4 10 0 6 -5 10 -11 10 -5 0
-7 -4 -4 -10z"/>
<path d="M4052 5029 c-16 -25 -8 -37 13 -19 9 7 15 8 15 2 0 -6 -6 -13 -12
-16 -10 -3 -8 -9 5 -19 16 -13 22 -13 50 1 31 17 32 17 7 20 -13 2 -26 -1 -28
-7 -2 -6 -8 -11 -14 -11 -5 0 -7 8 -4 18 4 10 0 26 -6 35 -12 16 -14 16 -26
-4z"/>
<path d="M4160 5035 c-11 -13 -10 -14 4 -9 9 3 16 10 16 15 0 13 -6 11 -20 -6z"/>
<path d="M4110 5030 c0 -5 5 -10 11 -10 5 0 7 5 4 10 -3 6 -8 10 -11 10 -2 0
-4 -4 -4 -10z"/>
<path d="M4133 4956 c4 -10 1 -13 -9 -9 -7 3 -14 1 -14 -4 0 -13 44 -53 57
-53 15 0 9 53 -6 58 -6 2 -9 8 -5 13 3 5 -2 9 -11 9 -11 0 -15 -5 -12 -14z
m27 -36 c0 -5 -2 -10 -4 -10 -3 0 -8 5 -11 10 -3 6 -1 10 4 10 6 0 11 -4 11
-10z"/>
<path d="M4193 4918 c2 -7 9 -13 15 -13 5 0 14 -3 18 -7 12 -13 24 -9 24 7 0
9 -6 12 -15 9 -8 -4 -15 -1 -15 5 0 6 -7 11 -16 11 -9 0 -14 -6 -11 -12z"/>
<path d="M4830 4924 c0 -16 17 -28 65 -46 57 -22 115 -31 115 -18 0 5 -8 10
-17 10 -32 0 -146 39 -154 52 -6 8 -9 9 -9 2z"/>
<path d="M4270 4869 c0 -5 5 -7 10 -4 6 3 10 8 10 11 0 2 -4 4 -10 4 -5 0 -10
-5 -10 -11z"/>
<path d="M4281 4828 c-9 -14 -10 -23 -2 -31 8 -8 11 -5 11 9 0 14 3 15 9 6 4
-7 6 -24 4 -36 -6 -30 6 -37 43 -26 21 6 23 9 9 9 -17 1 -17 3 -5 11 9 6 10
10 3 10 -6 0 -19 -7 -28 -16 -14 -15 -15 -14 -12 7 2 13 -1 36 -7 51 -12 27
-12 27 -25 6z"/>
<path d="M4390 4829 c0 -5 5 -7 10 -4 6 3 10 8 10 11 0 2 -4 4 -10 4 -5 0 -10
-5 -10 -11z"/>
<path d="M4335 4820 c-3 -5 -1 -10 4 -10 6 0 11 5 11 10 0 6 -2 10 -4 10 -3 0
-8 -4 -11 -10z"/>
<path d="M4392 4776 c7 -8 15 -12 17 -11 5 6 -10 25 -20 25 -5 0 -4 -6 3 -14z"/>
<path d="M4233 4448 c-24 -6 -43 -14 -43 -19 0 -16 80 -108 100 -114 31 -10
35 -1 35 73 0 64 -1 67 -25 69 -14 0 -44 -4 -67 -9z m62 -107 c-6 -6 -64 57
-65 71 0 4 15 11 33 16 l32 8 3 -44 c2 -24 0 -47 -3 -51z"/>
</g>
</svg>
